<svg xmlns="http://www.w3.org/2000/svg" width="1200" height="800" viewBox="0 0 1200 800" role="img">
  <defs>
    <linearGradient id="bg" x1="0" y1="0" x2="1" y2="1">
      <stop offset="0" stop-color="#1f6642"/>
      <stop offset="1" stop-color="#007ab8"/>
    </linearGradient>
    
  </defs>
  <rect width="1200" height="800" fill="url(#bg)"/>
  <circle cx="295" cy="437" r="95" fill="#ffffff" opacity="0.133"/><circle cx="55" cy="252" r="35" fill="#ffffff" opacity="0.126"/><circle cx="271" cy="14" r="36" fill="#ffffff" opacity="0.170"/><circle cx="42" cy="544" r="79" fill="#ffffff" opacity="0.073"/><circle cx="644" cy="553" r="89" fill="#ffffff" opacity="0.164"/><circle cx="962" cy="490" r="38" fill="#ffffff" opacity="0.056"/><circle cx="1137" cy="249" r="98" fill="#ffffff" opacity="0.160"/><circle cx="839" cy="453" r="28" fill="#ffffff" opacity="0.176"/><circle cx="544" cy="429" r="94" fill="#ffffff" opacity="0.147"/><circle cx="29" cy="578" r="58" fill="#ffffff" opacity="0.082"/><circle cx="645" cy="261" r="69" fill="#ffffff" opacity="0.152"/><circle cx="217" cy="114" r="27" fill="#ffffff" opacity="0.187"/><circle cx="889" cy="296" r="96" fill="#ffffff" opacity="0.142"/><circle cx="194" cy="792" r="89" fill="#ffffff" opacity="0.175"/><circle cx="658" cy="476" r="76" fill="#ffffff" opacity="0.136"/><circle cx="405" cy="653" r="36" fill="#ffffff" opacity="0.097"/><circle cx="702" cy="585" r="59" fill="#ffffff" opacity="0.125"/><circle cx="673" cy="722" r="74" fill="#ffffff" opacity="0.155"/><circle cx="153" cy="746" r="33" fill="#ffffff" opacity="0.060"/><circle cx="698" cy="537" r="33" fill="#ffffff" opacity="0.137"/><circle cx="1112" cy="379" r="67" fill="#ffffff" opacity="0.071"/><circle cx="931" cy="122" r="41" fill="#ffffff" opacity="0.052"/><circle cx="405" cy="397" r="76" fill="#ffffff" opacity="0.190"/><circle cx="225" cy="418" r="74" fill="#ffffff" opacity="0.153"/><circle cx="929" cy="662" r="83" fill="#ffffff" opacity="0.169"/><circle cx="1056" cy="557" r="90" fill="#ffffff" opacity="0.183"/><circle cx="555" cy="682" r="29" fill="#ffffff" opacity="0.064"/><circle cx="727" cy="789" r="60" fill="#ffffff" opacity="0.112"/><circle cx="621" cy="367" r="84" fill="#ffffff" opacity="0.063"/><circle cx="938" cy="658" r="82" fill="#ffffff" opacity="0.111"/><circle cx="388" cy="29" r="58" fill="#ffffff" opacity="0.115"/><circle cx="936" cy="429" r="89" fill="#ffffff" opacity="0.176"/><circle cx="283" cy="431" r="51" fill="#ffffff" opacity="0.051"/><circle cx="639" cy="167" r="73" fill="#ffffff" opacity="0.125"/><circle cx="707" cy="492" r="62" fill="#ffffff" opacity="0.070"/><circle cx="540" cy="458" r="72" fill="#ffffff" opacity="0.080"/><circle cx="20" cy="637" r="96" fill="#ffffff" opacity="0.182"/><circle cx="774" cy="790" r="69" fill="#ffffff" opacity="0.058"/><circle cx="107" cy="600" r="34" fill="#ffffff" opacity="0.146"/><circle cx="570" cy="381" r="95" fill="#ffffff" opacity="0.055"/><circle cx="314" cy="474" r="86" fill="#ffffff" opacity="0.055"/><circle cx="478" cy="648" r="98" fill="#ffffff" opacity="0.067"/><circle cx="155" cy="211" r="42" fill="#ffffff" opacity="0.149"/><circle cx="166" cy="543" r="27" fill="#ffffff" opacity="0.061"/><circle cx="5" cy="777" r="67" fill="#ffffff" opacity="0.158"/><circle cx="191" cy="723" r="38" fill="#ffffff" opacity="0.148"/>
  <rect width="1200" height="800" fill="url(#bg)" opacity="0.12"/>
</svg>